<svg width="376" height="381" viewBox="0 0 376 381" fill="none" xmlns="http://www.w3.org/2000/svg">
<path fill-rule="evenodd" clip-rule="evenodd" d="M45.3334 350.007V350.007C49.3455 345.852 54.8339 336.307 60.6096 336.307H122C127.523 336.307 132 331.83 132 326.307V321.307C132 315.784 136.477 311.307 142 311.307H166C171.523 311.307 176 315.784 176 321.307V366.307C176 374.039 169.732 380.307 162 380.307H14C6.26801 380.307 0 374.039 0 366.307V218.307C0 210.575 6.26801 204.307 14 204.307H162C169.732 204.307 176 210.575 176 218.307V256.307C176 261.83 171.523 266.307 166 266.307H141C136.029 266.307 132 262.277 132 257.307V257.307C132 252.336 127.971 248.307 123 248.307H60.2071C54.2883 248.307 49.3442 239.978 45.0866 235.867V235.867C41.1138 232.03 34.7831 232.141 30.9466 236.113C27.1101 240.086 27.2206 246.417 31.1934 250.253V250.253C35.3714 254.288 44 259.297 44 265.106V320.666C44 326.619 35.082 331.831 30.9466 336.113V336.113C27.1101 340.086 27.2206 346.417 31.1934 350.253C35.1662 354.09 41.4969 353.979 45.3334 350.007Z" fill="#22c55e"/>
<path fill-rule="evenodd" clip-rule="evenodd" d="M46.0628 36.2268C40.5399 36.2364 36.0706 40.7214 36.0802 46.2442L36.2268 130.244C36.2365 135.767 40.7214 140.236 46.2443 140.227L79.4117 140.169C86.7437 140.156 90.3403 131.232 85.0661 126.138V126.138C80.696 121.918 80.5744 114.955 84.7946 110.584L93.8251 101.233C98.0453 96.863 105.009 96.7414 109.379 100.962L123.24 114.347C129.594 120.483 140.202 115.97 140.187 107.136L140.08 46.0627C140.07 40.5399 135.585 36.0705 130.063 36.0802L46.0628 36.2268ZM14 0.282694C6.268 0.296189 0.0109397 6.57513 0.0244346 14.3071L0.282743 162.307C0.296238 170.039 6.57518 176.296 14.3072 176.282L162.307 176.024C170.039 176.011 176.296 169.732 176.282 162L176.024 13.9999C176.011 6.26795 169.732 0.0108909 162 0.0243857L14 0.282694ZM73.0999 84.9599C69.2634 88.9327 69.3739 95.2634 73.3467 99.0999C77.3195 102.936 83.6502 102.826 87.4867 98.8531C91.3232 94.8803 91.2127 88.5496 87.2399 84.7131C83.2671 80.8766 76.9364 80.9871 73.0999 84.9599Z" fill="#22c55e"/>
<path fill-rule="evenodd" clip-rule="evenodd" d="M338 249.307C338 243.784 333.523 239.307 328 239.307H242C236.477 239.307 232 243.784 232 249.307V279.786H206.477C206.469 279.786 206.462 279.786 206.455 279.786H197V218.307C197 210.575 203.268 204.307 211 204.307H359C366.732 204.307 373 210.575 373 218.307V366.307C373 374.039 366.732 380.307 359 380.307H211C203.268 380.307 197 374.039 197 366.307V311.786H212.477L232 311.786V335.307C232 340.83 236.477 345.307 242 345.307H328C333.523 345.307 338 340.83 338 335.307V249.307ZM232 311.786V279.786H293.477C298.999 279.786 303.477 284.263 303.477 289.786V301.786C303.477 307.309 298.999 311.786 293.477 311.786H232Z" fill="#22c55e"/>
<path fill-rule="evenodd" clip-rule="evenodd" d="M257.307 125C252.336 125 248.307 120.971 248.307 116V61C248.307 55.4772 252.784 51 258.307 51H312.807C318.053 51 322.307 55.2533 322.307 60.5V60.5C322.307 65.7467 326.56 70 331.807 70H363.307C368.829 70 373.307 65.5228 373.307 60V14C373.307 6.26801 367.039 0 359.307 0H211.307C203.575 0 197.307 6.26801 197.307 14V162C197.307 169.732 203.575 176 211.307 176H256.307C261.829 176 266.307 171.523 266.307 166V134C266.307 129.029 262.277 125 257.307 125V125Z" fill="#22c55e"/>
<path d="M294.656 89.4441C297.725 84.2014 304.463 82.4396 309.706 85.509L370.115 120.876C375.357 123.945 377.119 130.683 374.05 135.926L359.903 160.09C356.834 165.332 350.095 167.094 344.853 164.025L284.444 128.658C279.201 125.589 277.44 118.85 280.509 113.608L294.656 89.4441Z" fill="#22c55e"/>
</svg>
